<svg data-v-423bf9ae="" xmlns="http://www.w3.org/2000/svg" viewBox="0 0 471.5510365662117 60" class="font"><!----><!----><!----><g data-v-423bf9ae="" id="c62a0d4f-9579-4942-833f-14a817d3105e" fill="black" transform="matrix(6.122449456230433,0,0,6.122449456230433,-0.000001773096073520719,-11.816328097660907)"><path d="M3.64 1.93L3.64 1.93L3.66 1.93L3.66 1.93Q5.85 1.93 6.34 3.36L6.34 3.36L6.34 3.36Q6.57 3.89 6.57 4.85L6.57 4.85L4.98 5.07L4.96 5.03L4.96 5.00L4.96 5.00Q4.96 3.84 4.18 3.62L4.18 3.62L4.18 3.62Q3.94 3.55 3.60 3.53L3.60 3.53L3.60 3.53Q2.75 3.53 2.50 4.44L2.50 4.44L2.50 4.44Q2.36 5.05 2.36 5.88L2.36 5.88L2.36 6.64L2.36 6.64Q2.36 7.98 2.39 8.65L2.39 8.65L2.80 8.65L2.80 10.02L4.74 10.02L4.74 7.68L3.51 7.68L3.51 6.43L7.22 6.43L7.22 6.71L6.73 6.71L6.73 8.16L5.74 8.16L5.74 8.61L6.23 8.61L6.23 11.39L0.93 11.39L0.93 9.91L0.33 9.91L0.33 9.78L0.59 9.78L0.59 9.63L0.93 9.63L0.93 9.08L0 9.08L0 7.90L0.44 7.90L0.44 7.90Q0.42 7.38 0.42 7.29L0.42 7.29L0.42 7.29Q0.42 4.18 0.77 3.53L0.77 3.53L0.77 3.53Q0.86 3.13 1.33 2.64L1.33 2.64L1.33 2.64Q2.02 1.93 3.64 1.93ZM2.54 8.52L2.54 8.09L2.63 8.09L2.63 8.52L2.54 8.52ZM6.52 8.67L6.52 8.67L6.52 8.67Q6.62 8.71 6.63 8.76L6.63 8.76L6.63 8.82L6.63 8.82Q6.63 8.85 6.57 8.89L6.57 8.89L6.57 8.89Q6.58 8.91 6.58 8.93L6.58 8.93L6.62 8.93L6.62 8.90L6.70 8.90L6.70 8.92L6.70 8.92Q6.70 9.00 6.67 9.00L6.67 9.00L6.67 9.00Q6.67 9.02 6.75 9.11L6.75 9.11L6.65 9.11L6.60 9.08L6.60 9.08Q6.54 9.13 6.47 9.13L6.47 9.13L6.47 9.13Q6.36 9.13 6.34 8.98L6.34 8.98L6.34 8.98Q6.36 8.91 6.42 8.89L6.42 8.89L6.42 8.89Q6.41 8.80 6.41 8.76L6.41 8.76L6.41 8.76Q6.41 8.71 6.52 8.67ZM6.49 8.79L6.49 8.79L6.49 8.79Q6.50 8.82 6.50 8.84L6.50 8.84L6.50 8.84Q6.53 8.84 6.55 8.79L6.55 8.79L6.55 8.79Q6.55 8.76 6.52 8.76L6.52 8.76L6.52 8.76Q6.49 8.76 6.49 8.79ZM6.55 9.00L6.47 8.93L6.44 8.98L6.44 9.00L6.44 9.00Q6.44 9.02 6.49 9.05L6.49 9.05L6.49 9.05Q6.55 9.02 6.55 9.00L6.55 9.00ZM6.52 9.37L6.52 9.37L6.52 9.37Q6.62 9.41 6.63 9.45L6.63 9.45L6.63 9.52L6.63 9.52Q6.63 9.54 6.57 9.58L6.57 9.58L6.57 9.58Q6.58 9.62 6.58 9.63L6.58 9.63L6.62 9.63L6.62 9.60L6.70 9.60L6.70 9.62L6.70 9.62Q6.70 9.70 6.67 9.70L6.67 9.70L6.67 9.70Q6.67 9.71 6.75 9.81L6.75 9.81L6.65 9.81L6.60 9.78L6.60 9.78Q6.54 9.83 6.47 9.83L6.47 9.83L6.47 9.83Q6.36 9.83 6.34 9.68L6.34 9.68L6.34 9.68Q6.36 9.62 6.42 9.58L6.42 9.58L6.42 9.58Q6.41 9.50 6.41 9.45L6.41 9.45L6.41 9.45Q6.41 9.41 6.52 9.37ZM6.49 9.49L6.49 9.49L6.49 9.49Q6.50 9.52 6.50 9.54L6.50 9.54L6.50 9.54Q6.53 9.54 6.55 9.49L6.55 9.49L6.55 9.49Q6.55 9.45 6.52 9.45L6.52 9.45L6.52 9.45Q6.49 9.46 6.49 9.49ZM3.10 9.49L3.10 9.49L3.10 9.49Q3.32 9.52 3.32 9.68L3.32 9.68L3.32 9.73L3.32 9.73Q3.30 9.94 3.10 9.94L3.10 9.94L3.09 9.94L3.09 9.94Q2.89 9.94 2.89 9.70L2.89 9.70L2.89 9.70Q2.95 9.49 3.10 9.49ZM3.48 9.57L3.48 9.50L3.83 9.50L3.83 9.60L3.73 9.60L3.73 9.91L3.73 9.91Q3.73 9.94 3.69 9.94L3.69 9.94L3.64 9.94L3.64 9.94Q3.61 9.94 3.61 9.91L3.61 9.91L3.61 9.60L3.51 9.60L3.51 9.60Q3.48 9.60 3.48 9.57L3.48 9.57ZM3.01 9.70L3.01 9.70L3.01 9.78L3.01 9.78Q3.01 9.80 3.08 9.84L3.08 9.84L3.15 9.84L3.15 9.84Q3.21 9.84 3.22 9.71L3.22 9.71L3.22 9.71Q3.22 9.63 3.14 9.58L3.14 9.58L3.12 9.58L3.12 9.58Q3.01 9.58 3.01 9.70ZM6.47 9.63L6.47 9.63L6.44 9.68L6.44 9.70L6.44 9.70Q6.44 9.72 6.49 9.75L6.49 9.75L6.49 9.75Q6.55 9.72 6.55 9.70L6.55 9.70L6.55 9.70Q6.48 9.63 6.47 9.63ZM6.50 10.07L6.50 10.07L6.50 10.07Q6.58 10.07 6.63 10.15L6.63 10.15L6.63 10.22L6.63 10.22Q6.63 10.25 6.57 10.28L6.57 10.28L6.57 10.28Q6.58 10.32 6.58 10.33L6.58 10.33L6.62 10.33L6.62 10.30L6.70 10.30L6.70 10.32L6.70 10.32Q6.70 10.40 6.67 10.40L6.67 10.40L6.67 10.40Q6.67 10.41 6.75 10.51L6.75 10.51L6.65 10.51L6.60 10.48L6.60 10.48Q6.54 10.53 6.47 10.53L6.47 10.53L6.47 10.53Q6.36 10.53 6.34 10.38L6.34 10.38L6.34 10.38Q6.36 10.32 6.42 10.28L6.42 10.28L6.41 10.17L6.41 10.15L6.41 10.15Q6.41 10.12 6.50 10.07ZM6.49 10.19L6.49 10.19L6.49 10.19Q6.50 10.22 6.50 10.23L6.50 10.23L6.50 10.23Q6.53 10.23 6.55 10.19L6.55 10.19L6.55 10.19Q6.55 10.15 6.52 10.15L6.52 10.15L6.52 10.15Q6.49 10.16 6.49 10.19ZM6.55 10.40L6.47 10.33L6.44 10.38L6.44 10.40L6.44 10.40Q6.44 10.42 6.49 10.45L6.49 10.45L6.49 10.45Q6.55 10.42 6.55 10.40L6.55 10.40ZM6.50 10.77L6.50 10.77L6.50 10.77Q6.58 10.77 6.63 10.86L6.63 10.86L6.63 10.92L6.63 10.92Q6.63 10.94 6.57 10.99L6.57 10.99L6.57 10.99Q6.58 11.01 6.58 11.03L6.58 11.03L6.62 11.03L6.62 11.00L6.70 11.00L6.70 11.01L6.67 11.13L6.67 11.13Q6.69 11.13 6.75 11.21L6.75 11.21L6.65 11.21L6.60 11.18L6.60 11.18Q6.54 11.22 6.47 11.22L6.47 11.22L6.47 11.22Q6.36 11.22 6.34 11.08L6.34 11.08L6.34 11.08Q6.36 11.01 6.42 10.99L6.42 10.99L6.41 10.87L6.41 10.86L6.41 10.86Q6.41 10.82 6.50 10.77ZM6.49 10.88L6.49 10.88L6.49 10.88Q6.50 10.92 6.50 10.93L6.50 10.93L6.50 10.93Q6.53 10.93 6.55 10.88L6.55 10.88L6.55 10.88Q6.55 10.86 6.52 10.86L6.52 10.86L6.52 10.86Q6.49 10.86 6.49 10.88ZM6.55 11.09L6.47 11.03L6.44 11.08L6.44 11.09L6.44 11.09Q6.44 11.12 6.49 11.14L6.49 11.14L6.49 11.14Q6.55 11.12 6.55 11.09L6.55 11.09ZM2.29 11.73L2.29 11.53L4.31 11.53L4.31 11.73L2.29 11.73ZM7.24 6.33L7.24 1.94L9.13 1.94L9.13 7.12L8.24 7.12L8.24 7.39L9.13 7.39L9.13 8.36L9.13 8.36Q9.13 9.69 9.60 9.91L9.60 9.91L9.60 9.91Q9.84 10.06 10.19 10.06L10.19 10.06L10.77 10.06L10.77 8.34L11.29 8.34L11.29 1.94L13.16 1.94L13.16 7.96L12.48 7.96L12.48 8.39L13.16 8.39L13.16 8.39Q13.15 8.61 13.15 8.72L13.15 8.72L13.15 10.64L12.16 10.64L12.16 11.73L7.79 11.73L7.79 10.38L7.38 10.38L7.38 6.33L7.24 6.33ZM9.13 7.39L9.13 7.12L10.19 7.12L10.19 7.39L9.13 7.39ZM14.10 1.93L14.10 1.93L15.95 1.93L15.95 1.93Q15.98 1.94 15.98 1.97L15.98 1.97L15.98 6.73L15.98 6.73Q15.98 6.76 15.95 6.76L15.95 6.76L15.73 6.76L15.73 11.70L15.73 11.70Q15.73 11.73 15.70 11.73L15.70 11.73L14.10 11.73L14.10 11.73Q14.07 11.73 14.07 11.70L14.07 11.70L14.07 6.64L13.58 6.64L13.58 6.64Q13.54 6.64 13.54 6.61L13.54 6.61L13.54 6.40L13.54 6.40Q13.55 6.36 13.58 6.36L13.58 6.36L14.07 6.36L14.07 1.97L14.07 1.97Q14.08 1.93 14.10 1.93ZM15.03 6.36L14.08 6.36L14.08 6.64L15.03 6.64L15.03 6.36ZM15.99 3.57L15.99 1.93L21.73 1.93L21.73 3.57L19.83 3.57L19.83 10.34L20.69 10.34L20.69 10.54L19.83 10.54L19.83 11.29L19.32 11.29L19.32 11.55L19.68 11.55L19.68 11.73L17.94 11.73L17.94 11.73Q17.90 11.73 17.90 11.70L17.90 11.70L17.90 3.57L15.99 3.57ZM19.82 10.34L19.15 10.34L19.15 10.54L19.82 10.54L19.82 10.34ZM22.71 7.57L24.39 1.96L26.04 1.96L26.04 1.96Q26.07 2.10 27.64 7.29L27.64 7.29L27.94 7.29L27.94 10.51L27.26 10.51L27.26 10.76L27.94 10.76L27.94 11.45L26.12 11.45L26.12 9.47L23.90 9.47L23.90 10.32L22.99 10.32L22.99 11.73L21.34 11.73L21.34 11.63L21.47 11.63L21.47 10.32L22.15 10.32L22.15 7.57L22.71 7.57ZM25.20 4.71L25.16 4.71L25.16 4.72L25.16 4.72Q24.95 5.89 24.34 8.40L24.34 8.40L25.87 8.40L25.87 7.29L25.74 7.29L25.74 7.29Q25.20 4.92 25.20 4.71L25.20 4.71ZM20.86 7.57L20.86 7.28L22.15 7.28L22.15 7.57L20.86 7.57ZM26.12 11.73L26.12 11.57L28.31 11.57L28.31 11.73L26.12 11.73ZM28.03 7.49L28.03 1.96L31.38 1.96L31.38 1.96Q33.07 1.96 33.56 3.14L33.56 3.14L33.56 3.14Q33.77 3.75 33.77 4.53L33.77 4.53L33.77 4.94L33.77 4.94Q33.77 6.36 33.15 7.11L33.15 7.11L32.44 7.11L32.44 7.47L33.52 7.47L33.52 9.81L32.88 9.81L32.88 10.17L33.85 10.17L33.85 11.55L31.81 11.55L31.81 9.34L31.03 9.34L31.03 7.92L29.66 7.92L29.66 10.34L29.96 10.34L29.96 11.73L28.07 11.73L28.07 11.73Q28.03 11.73 28.03 11.70L28.03 11.70L28.03 7.77L28.88 7.77L28.88 7.49L28.03 7.49ZM30.76 3.55L29.96 3.55L29.96 6.31L30.42 6.31L30.42 6.31Q31.47 6.31 31.63 6.11L31.63 6.11L31.63 6.11Q31.80 6.00 31.90 5.67L31.90 5.67L32.62 5.67L32.62 5.32L31.96 5.32L31.96 5.35L31.96 5.35Q31.91 5.67 31.88 5.67L31.88 5.67L30.95 5.67L30.95 5.32L31.93 5.32L31.93 5.32Q31.96 5.32 31.96 5.29L31.96 5.29L31.96 5.29Q31.98 4.87 31.98 4.81L31.98 4.81L31.98 4.81Q31.98 3.90 31.66 3.69L31.66 3.69L31.66 3.69Q31.42 3.55 30.76 3.55L30.76 3.55ZM38.42 6.77L38.42 1.94L43.25 1.94L43.25 3.54L43.25 3.54Q43.25 3.58 43.22 3.58L43.22 3.58L40.35 3.58L40.35 5.70L42.92 5.70L42.92 5.71L42.92 5.71Q42.92 5.81 42.89 6.75L42.89 6.75L42.89 6.75Q42.88 6.75 42.88 6.77L42.88 6.77L42.99 6.77L42.99 7.27L40.76 7.27L40.76 9.28L40.17 9.28L40.17 9.47L40.76 9.47L40.76 10.08L43.29 10.08L43.29 10.32L43.09 10.32L43.09 11.52L40.07 11.52L40.07 11.73L38.64 11.73L38.64 8.22L38.42 8.22L38.42 6.99L36.86 6.99L36.86 6.77L38.42 6.77ZM39.25 6.77L38.44 6.77L38.44 6.99L39.25 6.99L39.25 6.77ZM40.91 10.04L40.91 9.59L41.03 9.59L41.03 9.75L41.04 9.75L41.04 9.75Q41.04 9.71 41.19 9.59L41.19 9.59L41.31 9.59L41.15 9.77L41.32 10.04L41.21 10.04L41.21 10.04Q41.08 9.85 41.06 9.85L41.06 9.85L41.06 9.85Q41.03 9.86 41.03 9.88L41.03 9.88L41.03 10.04L40.91 10.04ZM41.49 10.04L41.49 9.59L41.72 9.59L41.72 9.59Q41.83 9.59 41.87 9.72L41.87 9.72L41.87 9.72Q41.87 9.74 41.80 9.84L41.80 9.84L41.80 9.84Q41.85 9.84 41.87 10.04L41.87 10.04L41.79 10.04L41.79 10.04Q41.75 10.04 41.73 9.87L41.73 9.87L41.60 9.87L41.60 10.04L41.49 10.04ZM42.23 9.59L42.23 9.59L42.29 9.59L42.29 9.59Q42.44 9.59 42.48 9.79L42.48 9.79L42.48 9.85L42.48 9.85Q42.48 9.91 42.43 9.97L42.43 9.97L42.43 9.99L42.43 9.99Q42.48 9.99 42.48 10.01L42.48 10.01L42.48 10.01Q42.48 10.04 42.43 10.07L42.43 10.07L42.43 10.07Q42.40 10.07 42.38 10.01L42.38 10.01L42.29 10.04L42.23 10.04L42.23 10.04Q42.07 10.04 42.05 9.79L42.05 9.79L42.05 9.79Q42.10 9.59 42.23 9.59ZM42.16 9.79L42.16 9.79L42.16 9.84L42.16 9.84Q42.16 9.95 42.28 9.95L42.28 9.95L42.29 9.95L42.29 9.93L42.27 9.93L42.27 9.92L42.27 9.92Q42.27 9.89 42.31 9.87L42.31 9.87L42.36 9.90L42.36 9.90Q42.36 9.89 42.38 9.80L42.38 9.80L42.38 9.80Q42.37 9.67 42.25 9.67L42.25 9.67L42.25 9.67Q42.16 9.69 42.16 9.79ZM41.72 9.69L41.60 9.69L41.60 9.79L41.72 9.79L41.72 9.79Q41.75 9.79 41.75 9.75L41.75 9.75L41.75 9.72L41.75 9.72Q41.75 9.69 41.72 9.69L41.72 9.69ZM43.19 10.51L43.19 10.41L43.29 10.41L43.29 10.43L43.29 10.43Q43.29 10.73 43.24 10.73L43.24 10.73L43.24 10.73Q43.19 10.73 43.19 10.51L43.19 10.51ZM43.19 10.84L43.19 10.74L43.29 10.74L43.29 10.84L43.19 10.84ZM43.91 1.96L43.91 1.96L45.91 1.96L45.91 1.96Q45.95 1.96 46.55 3.53L46.55 3.53L46.55 3.53Q46.60 3.59 47.81 6.62L47.81 6.62L48.32 6.62L48.32 1.96L50.07 1.96L50.07 7.51L50.26 7.51L50.26 9.67L49.56 9.67L49.56 10.08L50.26 10.08L50.26 11.37L47.65 11.37L47.65 9.73L47.18 9.73L47.18 9.73Q46.24 7.44 45.91 6.56L45.91 6.56L45.91 4.92L45.66 4.92L45.66 9.93L45.27 9.93L45.27 11.66L43.63 11.66L43.63 7.94L43.93 7.94L43.93 7.92L43.93 7.92Q43.91 3.09 43.91 1.96ZM47.78 6.62L46.85 6.62L46.85 6.98L47.94 6.98L47.94 6.98Q47.81 6.62 47.78 6.62L47.78 6.62ZM49.13 6.62L48.34 6.62L48.34 6.98L47.95 6.98L47.95 6.98Q48.30 7.85 48.37 8.11L48.37 8.11L48.38 8.11L48.38 8.07L48.38 8.07Q48.34 7.18 48.34 6.98L48.34 6.98L49.13 6.98L49.13 6.62ZM47.65 11.73L47.65 11.55L50.81 11.55L50.81 11.73L47.65 11.73ZM51.52 1.93L51.52 1.93L53.36 1.93L53.36 1.93Q53.39 1.94 53.39 1.97L53.39 1.97L53.39 6.73L53.39 6.73Q53.39 6.76 53.36 6.76L53.36 6.76L53.14 6.76L53.14 11.70L53.14 11.70Q53.14 11.73 53.11 11.73L53.11 11.73L51.52 11.73L51.52 11.73Q51.48 11.73 51.48 11.70L51.48 11.70L51.48 6.64L50.99 6.64L50.99 6.64Q50.96 6.64 50.96 6.61L50.96 6.61L50.96 6.40L50.96 6.40Q50.96 6.36 50.99 6.36L50.99 6.36L51.48 6.36L51.48 1.97L51.48 1.97Q51.49 1.93 51.52 1.93ZM52.44 6.36L51.50 6.36L51.50 6.64L52.44 6.64L52.44 6.36ZM57.32 1.96L57.32 1.96L57.34 1.96L57.34 1.96Q59.53 1.96 60.01 3.38L60.01 3.38L60.01 3.38Q60.24 3.91 60.24 4.87L60.24 4.87L58.65 5.09L58.63 5.05L58.63 5.02L58.63 5.02Q58.63 3.86 57.85 3.64L57.85 3.64L57.85 3.64Q57.62 3.58 57.27 3.56L57.27 3.56L57.27 3.56Q56.43 3.56 56.18 4.47L56.18 4.47L56.18 4.47Q56.04 5.07 56.04 5.89L56.04 5.89L56.04 6.66L56.04 6.66Q56.04 7.99 56.08 8.67L56.08 8.67L56.48 8.67L56.48 10.03L58.42 10.03L58.42 7.70L57.19 7.70L57.19 6.45L60.89 6.45L60.89 6.72L60.40 6.72L60.40 8.16L59.41 8.16L59.41 8.62L59.90 8.62L59.90 11.39L54.61 11.39L54.61 9.91L54.01 9.91L54.01 9.78L54.27 9.78L54.27 9.64L54.61 9.64L54.61 9.08L53.69 9.08L53.69 7.90L54.13 7.90L54.13 7.90Q54.11 7.38 54.11 7.31L54.11 7.31L54.11 7.31Q54.11 4.20 54.45 3.56L54.45 3.56L54.45 3.56Q54.55 3.15 55.02 2.67L55.02 2.67L55.02 2.67Q55.71 1.96 57.32 1.96ZM55.97 11.73L55.97 11.54L57.98 11.54L57.98 11.73L55.97 11.73ZM61.10 9.38L61.10 1.98L63.27 1.98L63.27 1.98Q63.64 3.29 64.75 7.23L64.75 7.23L65.61 7.23L65.61 7.23Q65.65 7.23 65.89 6.30L65.89 6.30L65.89 6.30Q66.43 4.44 67.11 1.98L67.11 1.98L69.12 1.98L69.12 8.31L69.23 8.31L69.23 9.46L68.62 9.46L68.62 9.67L69.23 9.67L69.23 11.73L67.52 11.73L67.52 10.97L67.73 10.97L67.73 8.63L67.37 8.63L67.37 7.46L67.16 7.46L67.14 7.53L66.96 7.53L66.96 9.19L66.36 9.19L66.36 9.97L65.86 9.97L65.86 11.29L64.65 11.29L64.65 10.45L63.92 10.45L63.92 9.30L63.47 9.30L63.47 8.09L63.22 8.09L63.22 8.09Q63.21 8.00 63.05 7.46L63.05 7.46L64.78 7.46L64.74 7.23L63.01 7.23L63.05 7.46L62.83 7.46L62.83 8.98L62.94 8.98L62.94 10.64L62.51 10.64L62.51 10.94L62.94 10.94L62.94 11.38L61.39 11.38L61.39 9.38L61.10 9.38ZM62.83 6.54L62.81 6.54L62.81 6.66L62.81 6.66Q62.81 6.81 62.83 7.23L62.83 7.23L62.99 7.23L62.99 7.23Q62.83 6.58 62.83 6.54L62.83 6.54ZM67.39 6.56L67.37 6.56L67.22 7.23L67.37 7.23L67.37 7.23Q67.39 6.82 67.39 6.62L67.39 6.62L67.39 6.56ZM62.81 7.23L62.27 7.23L62.27 7.46L62.81 7.46L62.81 7.23ZM67.20 7.23L65.64 7.23L65.59 7.46L67.14 7.46L67.14 7.46Q67.20 7.29 67.20 7.23L67.20 7.23ZM68.57 7.23L67.39 7.23L67.39 7.46L68.57 7.46L68.57 7.23ZM65.56 7.46L64.82 7.46L64.82 7.46Q64.93 7.99 64.97 7.99L64.97 7.99L65.17 7.99L65.17 8.87L65.47 8.87L65.47 7.51L65.56 7.51L65.56 7.46ZM69.23 9.67L69.23 9.46L70.22 9.46L70.22 9.67L69.23 9.67ZM60.95 11.61L60.95 11.46L62.69 11.46L62.69 11.61L60.95 11.61ZM71.42 7.57L73.10 1.96L74.74 1.96L74.74 1.96Q74.78 2.10 76.34 7.29L76.34 7.29L76.64 7.29L76.64 10.51L75.97 10.51L75.97 10.76L76.64 10.76L76.64 11.45L74.83 11.45L74.83 9.47L72.60 9.47L72.60 10.32L71.70 10.32L71.70 11.73L70.05 11.73L70.05 11.63L70.18 11.63L70.18 10.32L70.85 10.32L70.85 7.57L71.42 7.57ZM73.90 4.71L73.87 4.71L73.87 4.72L73.87 4.72Q73.66 5.89 73.05 8.40L73.05 8.40L74.58 8.40L74.58 7.29L74.45 7.29L74.45 7.29Q73.90 4.92 73.90 4.71L73.90 4.71ZM69.57 7.57L69.57 7.28L70.85 7.28L70.85 7.57L69.57 7.57ZM74.83 11.73L74.83 11.57L77.02 11.57L77.02 11.73L74.83 11.73Z"></path></g><!----><!----></svg>